<svg width="185" height="43" viewBox="0 0 185 43" fill="none" xmlns="http://www.w3.org/2000/svg">
<path d="M21.5 43C33.3741 43 43 33.3741 43 21.5C43 9.62588 33.3741 0 21.5 0C9.62588 0 0 9.62588 0 21.5C0 33.3741 9.62588 43 21.5 43Z" fill="#333333"/>
<path fill-rule="evenodd" clip-rule="evenodd" d="M31.0668 19.4792C31.1349 20.7554 31.1349 22.0379 31.0668 23.3268C31.0605 23.5761 31.0478 23.745 31.0288 23.8337C30.9699 24.1093 30.9242 24.1363 30.9013 24.2046C30.8872 24.2463 30.7999 24.3788 30.6946 24.4677C30.6266 24.525 30.5546 24.5692 30.478 24.6193C30.4109 24.6632 30.329 24.715 30.2323 24.7745L16.2819 33.0231C15.8926 33.2105 15.6433 33.313 15.534 33.3306C14.9666 33.4219 14.7772 33.2266 14.6105 33.1272C14.2899 32.9361 14.1175 32.5273 14.0931 31.9007V28.9053C14.0734 28.1287 14.1274 27.5947 14.2551 27.3034C14.3829 27.012 14.6924 26.7168 15.1838 26.4179L29.318 18.4083C29.5341 18.3052 29.6839 18.2435 29.7674 18.2233C30.0291 18.1598 30.1823 18.201 30.223 18.2066C30.5163 18.2471 30.6988 18.3054 30.8037 18.3968C31.0573 18.6176 31.0374 18.9285 31.0668 19.4792Z" fill="white"/>
<path fill-rule="evenodd" clip-rule="evenodd" d="M28.3639 17.2194C28.3624 17.2007 28.3946 17.1783 28.4232 17.1465C28.4484 17.1184 28.4689 17.082 28.4868 17.0456C28.5308 16.9562 28.5264 16.8494 28.5211 16.815C28.5085 16.7345 28.4873 16.6942 28.4745 16.6562C28.4657 16.63 28.403 16.5466 28.3364 16.5015C28.2971 16.4749 28.0817 16.3583 28.0052 16.3082C27.938 16.2642 27.8561 16.2125 27.7594 16.1529L15.4823 9.08675C15.2625 9.00929 15.0973 8.97143 14.9866 8.97316C14.8031 8.97602 14.5334 9.0536 14.3409 9.17868C14.1347 9.31262 14.0394 9.47109 14.01 9.51166C13.9792 9.55409 13.9164 9.66074 13.8786 9.78349C13.8691 9.81432 13.8538 9.85491 13.8444 9.90985C13.8402 9.93428 13.836 9.97812 13.8316 10.0413V12.059V14.5706C13.9135 15.0781 14.161 15.4659 14.5739 15.7341C14.7936 15.8769 17.4915 17.403 22.6674 20.3126C24.2145 19.5388 25.24 19.0056 25.744 18.7131C27.4844 17.7031 28.3672 17.2599 28.3639 17.2194Z" fill="white"/>
<path d="M55.36 15.52H57.16V16.88H57.2C57.5467 16.3733 58.02 15.98 58.62 15.7C59.2333 15.42 59.86 15.28 60.5 15.28C61.2333 15.28 61.8933 15.4067 62.48 15.66C63.08 15.9133 63.5867 16.2667 64 16.72C64.4267 17.1733 64.7533 17.7067 64.98 18.32C65.2067 18.92 65.32 19.5667 65.32 20.26C65.32 20.9667 65.2067 21.6267 64.98 22.24C64.7533 22.84 64.4267 23.3667 64 23.82C63.5867 24.26 63.08 24.6067 62.48 24.86C61.8933 25.1133 61.2333 25.24 60.5 25.24C59.82 25.24 59.18 25.1 58.58 24.82C57.98 24.5267 57.52 24.1333 57.2 23.64H57.16V30.64H55.36V15.52ZM60.28 16.96C59.8 16.96 59.3667 17.0467 58.98 17.22C58.5933 17.38 58.2667 17.6067 58 17.9C57.7333 18.18 57.5267 18.5267 57.38 18.94C57.2333 19.34 57.16 19.78 57.16 20.26C57.16 20.74 57.2333 21.1867 57.38 21.6C57.5267 22 57.7333 22.3467 58 22.64C58.2667 22.92 58.5933 23.1467 58.98 23.32C59.3667 23.48 59.8 23.56 60.28 23.56C60.76 23.56 61.1933 23.48 61.58 23.32C61.9667 23.1467 62.2933 22.92 62.56 22.64C62.8267 22.3467 63.0333 22 63.18 21.6C63.3267 21.1867 63.4 20.74 63.4 20.26C63.4 19.78 63.3267 19.34 63.18 18.94C63.0333 18.5267 62.8267 18.18 62.56 17.9C62.2933 17.6067 61.9667 17.38 61.58 17.22C61.1933 17.0467 60.76 16.96 60.28 16.96ZM67.5866 15.52H69.3866V16.98H69.4266C69.5466 16.7267 69.7066 16.5 69.9066 16.3C70.1066 16.0867 70.3266 15.9067 70.5666 15.76C70.8199 15.6133 71.0932 15.5 71.3866 15.42C71.6799 15.3267 71.9732 15.28 72.2666 15.28C72.5599 15.28 72.8266 15.32 73.0666 15.4L72.9866 17.34C72.8399 17.3 72.6932 17.2667 72.5466 17.24C72.3999 17.2133 72.2532 17.2 72.1066 17.2C71.2266 17.2 70.5532 17.4467 70.0866 17.94C69.6199 18.4333 69.3866 19.2 69.3866 20.24V25H67.5866V15.52ZM75.9973 20.92C75.9973 21.3333 76.084 21.7133 76.2573 22.06C76.444 22.3933 76.684 22.68 76.9773 22.92C77.2707 23.16 77.6107 23.3467 77.9973 23.48C78.384 23.6133 78.784 23.68 79.1973 23.68C79.7573 23.68 80.244 23.5533 80.6573 23.3C81.0707 23.0333 81.4507 22.6867 81.7973 22.26L83.1573 23.3C82.1573 24.5933 80.7573 25.24 78.9573 25.24C78.2107 25.24 77.5307 25.1133 76.9173 24.86C76.3173 24.6067 75.804 24.26 75.3773 23.82C74.964 23.3667 74.644 22.84 74.4173 22.24C74.1907 21.6267 74.0773 20.9667 74.0773 20.26C74.0773 19.5533 74.1973 18.9 74.4373 18.3C74.6907 17.6867 75.0307 17.16 75.4573 16.72C75.8973 16.2667 76.4173 15.9133 77.0173 15.66C77.6173 15.4067 78.2707 15.28 78.9773 15.28C79.8173 15.28 80.524 15.4267 81.0973 15.72C81.684 16.0133 82.164 16.4 82.5373 16.88C82.9107 17.3467 83.1773 17.88 83.3373 18.48C83.5107 19.0667 83.5973 19.6667 83.5973 20.28V20.92H75.9973ZM81.6773 19.48C81.664 19.08 81.5973 18.7133 81.4773 18.38C81.3707 18.0467 81.204 17.76 80.9773 17.52C80.7507 17.2667 80.464 17.0733 80.1173 16.94C79.784 16.7933 79.3907 16.72 78.9373 16.72C78.4973 16.72 78.0907 16.8067 77.7173 16.98C77.3573 17.14 77.0507 17.3533 76.7973 17.62C76.544 17.8867 76.344 18.1867 76.1973 18.52C76.064 18.84 75.9973 19.16 75.9973 19.48H81.6773ZM90.7906 17.9C90.5773 17.6333 90.3106 17.4133 89.9906 17.24C89.684 17.0533 89.304 16.96 88.8506 16.96C88.424 16.96 88.0506 17.0533 87.7306 17.24C87.424 17.4133 87.2706 17.6733 87.2706 18.02C87.2706 18.3 87.3573 18.5267 87.5306 18.7C87.7173 18.8733 87.9306 19.0133 88.1706 19.12C88.424 19.2267 88.6906 19.3067 88.9706 19.36C89.2506 19.4133 89.4906 19.46 89.6906 19.5C90.0773 19.5933 90.4373 19.7067 90.7706 19.84C91.1173 19.9733 91.4106 20.1467 91.6506 20.36C91.904 20.5733 92.0973 20.8333 92.2306 21.14C92.3773 21.4467 92.4506 21.82 92.4506 22.26C92.4506 22.7933 92.3373 23.2533 92.1106 23.64C91.884 24.0133 91.5906 24.32 91.2306 24.56C90.8706 24.8 90.4573 24.9733 89.9906 25.08C89.5373 25.1867 89.0773 25.24 88.6106 25.24C87.824 25.24 87.1306 25.12 86.5306 24.88C85.944 24.64 85.4173 24.2 84.9506 23.56L86.3106 22.44C86.604 22.7333 86.9306 22.9933 87.2906 23.22C87.6506 23.4467 88.0906 23.56 88.6106 23.56C88.8373 23.56 89.064 23.54 89.2906 23.5C89.5306 23.4467 89.7373 23.3733 89.9106 23.28C90.0973 23.1733 90.244 23.0467 90.3506 22.9C90.4706 22.74 90.5306 22.56 90.5306 22.36C90.5306 22.0933 90.444 21.8733 90.2706 21.7C90.1106 21.5267 89.9106 21.3933 89.6706 21.3C89.444 21.1933 89.1973 21.1133 88.9306 21.06C88.6773 20.9933 88.4506 20.94 88.2506 20.9C87.864 20.8067 87.4973 20.7 87.1506 20.58C86.804 20.46 86.4973 20.3 86.2306 20.1C85.964 19.9 85.7506 19.6467 85.5906 19.34C85.4306 19.0333 85.3506 18.6533 85.3506 18.2C85.3506 17.7067 85.4506 17.28 85.6506 16.92C85.864 16.5467 86.1373 16.24 86.4706 16C86.8173 15.76 87.204 15.58 87.6306 15.46C88.0706 15.34 88.5106 15.28 88.9506 15.28C89.5906 15.28 90.204 15.4 90.7906 15.64C91.3773 15.88 91.844 16.28 92.1906 16.84L90.7906 17.9ZM99.6773 17.9C99.464 17.6333 99.1973 17.4133 98.8773 17.24C98.5707 17.0533 98.1907 16.96 97.7373 16.96C97.3107 16.96 96.9373 17.0533 96.6173 17.24C96.3107 17.4133 96.1573 17.6733 96.1573 18.02C96.1573 18.3 96.244 18.5267 96.4173 18.7C96.604 18.8733 96.8173 19.0133 97.0573 19.12C97.3107 19.2267 97.5773 19.3067 97.8573 19.36C98.1373 19.4133 98.3773 19.46 98.5773 19.5C98.964 19.5933 99.324 19.7067 99.6573 19.84C100.004 19.9733 100.297 20.1467 100.537 20.36C100.791 20.5733 100.984 20.8333 101.117 21.14C101.264 21.4467 101.337 21.82 101.337 22.26C101.337 22.7933 101.224 23.2533 100.997 23.64C100.771 24.0133 100.477 24.32 100.117 24.56C99.7573 24.8 99.344 24.9733 98.8773 25.08C98.424 25.1867 97.964 25.24 97.4973 25.24C96.7107 25.24 96.0173 25.12 95.4173 24.88C94.8307 24.64 94.304 24.2 93.8373 23.56L95.1973 22.44C95.4907 22.7333 95.8173 22.9933 96.1773 23.22C96.5373 23.4467 96.9773 23.56 97.4973 23.56C97.724 23.56 97.9507 23.54 98.1773 23.5C98.4173 23.4467 98.624 23.3733 98.7973 23.28C98.984 23.1733 99.1307 23.0467 99.2373 22.9C99.3573 22.74 99.4173 22.56 99.4173 22.36C99.4173 22.0933 99.3307 21.8733 99.1573 21.7C98.9973 21.5267 98.7973 21.3933 98.5573 21.3C98.3307 21.1933 98.084 21.1133 97.8173 21.06C97.564 20.9933 97.3373 20.94 97.1373 20.9C96.7507 20.8067 96.384 20.7 96.0373 20.58C95.6907 20.46 95.384 20.3 95.1173 20.1C94.8507 19.9 94.6373 19.6467 94.4773 19.34C94.3173 19.0333 94.2373 18.6533 94.2373 18.2C94.2373 17.7067 94.3373 17.28 94.5373 16.92C94.7507 16.5467 95.024 16.24 95.3573 16C95.704 15.76 96.0907 15.58 96.5173 15.46C96.9573 15.34 97.3973 15.28 97.8373 15.28C98.4773 15.28 99.0907 15.4 99.6773 15.64C100.264 15.88 100.731 16.28 101.077 16.84L99.6773 17.9ZM103.524 15.52H105.324V16.88H105.364C105.711 16.3733 106.184 15.98 106.784 15.7C107.397 15.42 108.024 15.28 108.664 15.28C109.397 15.28 110.057 15.4067 110.644 15.66C111.244 15.9133 111.751 16.2667 112.164 16.72C112.591 17.1733 112.917 17.7067 113.144 18.32C113.371 18.92 113.484 19.5667 113.484 20.26C113.484 20.9667 113.371 21.6267 113.144 22.24C112.917 22.84 112.591 23.3667 112.164 23.82C111.751 24.26 111.244 24.6067 110.644 24.86C110.057 25.1133 109.397 25.24 108.664 25.24C107.984 25.24 107.344 25.1 106.744 24.82C106.144 24.5267 105.684 24.1333 105.364 23.64H105.324V30.64H103.524V15.52ZM108.444 16.96C107.964 16.96 107.531 17.0467 107.144 17.22C106.757 17.38 106.431 17.6067 106.164 17.9C105.897 18.18 105.691 18.5267 105.544 18.94C105.397 19.34 105.324 19.78 105.324 20.26C105.324 20.74 105.397 21.1867 105.544 21.6C105.691 22 105.897 22.3467 106.164 22.64C106.431 22.92 106.757 23.1467 107.144 23.32C107.531 23.48 107.964 23.56 108.444 23.56C108.924 23.56 109.357 23.48 109.744 23.32C110.131 23.1467 110.457 22.92 110.724 22.64C110.991 22.3467 111.197 22 111.344 21.6C111.491 21.1867 111.564 20.74 111.564 20.26C111.564 19.78 111.491 19.34 111.344 18.94C111.197 18.5267 110.991 18.18 110.724 17.9C110.457 17.6067 110.131 17.38 109.744 17.22C109.357 17.0467 108.924 16.96 108.444 16.96ZM115.891 9.88H117.691V25H115.891V9.88ZM120.595 16.68C121.102 16.2133 121.689 15.8667 122.355 15.64C123.022 15.4 123.689 15.28 124.355 15.28C125.049 15.28 125.642 15.3667 126.135 15.54C126.642 15.7133 127.055 15.9467 127.375 16.24C127.695 16.5333 127.929 16.8733 128.075 17.26C128.235 17.6333 128.315 18.0267 128.315 18.44V23.28C128.315 23.6133 128.322 23.92 128.335 24.2C128.349 24.48 128.369 24.7467 128.395 25H126.795C126.755 24.52 126.735 24.04 126.735 23.56H126.695C126.295 24.1733 125.822 24.6067 125.275 24.86C124.729 25.1133 124.095 25.24 123.375 25.24C122.935 25.24 122.515 25.18 122.115 25.06C121.715 24.94 121.362 24.76 121.055 24.52C120.762 24.28 120.529 23.9867 120.355 23.64C120.182 23.28 120.095 22.8667 120.095 22.4C120.095 21.7867 120.229 21.2733 120.495 20.86C120.775 20.4467 121.149 20.1133 121.615 19.86C122.095 19.5933 122.649 19.4067 123.275 19.3C123.915 19.18 124.595 19.12 125.315 19.12H126.635V18.72C126.635 18.48 126.589 18.24 126.495 18C126.402 17.76 126.262 17.5467 126.075 17.36C125.889 17.16 125.655 17.0067 125.375 16.9C125.095 16.78 124.762 16.72 124.375 16.72C124.029 16.72 123.722 16.7533 123.455 16.82C123.202 16.8867 122.969 16.9733 122.755 17.08C122.542 17.1733 122.349 17.2867 122.175 17.42C122.002 17.5533 121.835 17.68 121.675 17.8L120.595 16.68ZM125.675 20.44C125.249 20.44 124.809 20.4667 124.355 20.52C123.915 20.56 123.509 20.6467 123.135 20.78C122.775 20.9133 122.475 21.1 122.235 21.34C122.009 21.58 121.895 21.8867 121.895 22.26C121.895 22.8067 122.075 23.2 122.435 23.44C122.809 23.68 123.309 23.8 123.935 23.8C124.429 23.8 124.849 23.72 125.195 23.56C125.542 23.3867 125.822 23.1667 126.035 22.9C126.249 22.6333 126.402 22.34 126.495 22.02C126.589 21.6867 126.635 21.36 126.635 21.04V20.44H125.675ZM129.786 15.52H131.866L134.686 22.92H134.726L137.406 15.52H139.346L134.846 27.04C134.686 27.4533 134.52 27.8267 134.346 28.16C134.173 28.5067 133.966 28.8 133.726 29.04C133.486 29.28 133.193 29.4667 132.846 29.6C132.513 29.7333 132.1 29.8 131.606 29.8C131.34 29.8 131.066 29.78 130.786 29.74C130.52 29.7133 130.26 29.6467 130.006 29.54L130.226 27.9C130.586 28.0467 130.946 28.12 131.306 28.12C131.586 28.12 131.82 28.08 132.006 28C132.206 27.9333 132.373 27.8267 132.506 27.68C132.653 27.5467 132.773 27.3867 132.866 27.2C132.96 27.0133 133.053 26.8 133.146 26.56L133.726 25.06L129.786 15.52ZM147.206 18.42C147.06 18.2067 146.853 18.0333 146.586 17.9C146.32 17.7533 146.033 17.68 145.726 17.68C144.966 17.68 144.373 17.9067 143.946 18.36C143.533 18.8133 143.326 19.4067 143.326 20.14C143.326 20.8733 143.533 21.4667 143.946 21.92C144.373 22.3733 144.966 22.6 145.726 22.6C146.06 22.6 146.346 22.5267 146.586 22.38C146.826 22.2333 147.033 22.06 147.206 21.86L149.186 23.94C148.72 24.42 148.166 24.76 147.526 24.96C146.9 25.1467 146.3 25.24 145.726 25.24C144.98 25.24 144.273 25.12 143.606 24.88C142.953 24.64 142.38 24.3 141.886 23.86C141.406 23.4067 141.026 22.8667 140.746 22.24C140.466 21.6133 140.326 20.9133 140.326 20.14C140.326 19.3667 140.466 18.6667 140.746 18.04C141.026 17.4133 141.406 16.88 141.886 16.44C142.38 15.9867 142.953 15.64 143.606 15.4C144.273 15.16 144.98 15.04 145.726 15.04C146.3 15.04 146.9 15.14 147.526 15.34C148.166 15.5267 148.72 15.86 149.186 16.34L147.206 18.42ZM149.915 20.14C149.915 19.3667 150.055 18.6667 150.335 18.04C150.615 17.4133 150.995 16.88 151.475 16.44C151.968 15.9867 152.542 15.64 153.195 15.4C153.862 15.16 154.568 15.04 155.315 15.04C156.062 15.04 156.762 15.16 157.415 15.4C158.082 15.64 158.655 15.9867 159.135 16.44C159.628 16.88 160.015 17.4133 160.295 18.04C160.575 18.6667 160.715 19.3667 160.715 20.14C160.715 20.9133 160.575 21.6133 160.295 22.24C160.015 22.8667 159.628 23.4067 159.135 23.86C158.655 24.3 158.082 24.64 157.415 24.88C156.762 25.12 156.062 25.24 155.315 25.24C154.568 25.24 153.862 25.12 153.195 24.88C152.542 24.64 151.968 24.3 151.475 23.86C150.995 23.4067 150.615 22.8667 150.335 22.24C150.055 21.6133 149.915 20.9133 149.915 20.14ZM152.915 20.14C152.915 20.8733 153.122 21.4667 153.535 21.92C153.962 22.3733 154.555 22.6 155.315 22.6C156.075 22.6 156.662 22.3733 157.075 21.92C157.502 21.4667 157.715 20.8733 157.715 20.14C157.715 19.4067 157.502 18.8133 157.075 18.36C156.662 17.9067 156.075 17.68 155.315 17.68C154.555 17.68 153.962 17.9067 153.535 18.36C153.122 18.8133 152.915 19.4067 152.915 20.14ZM172.682 25H169.922V23.72H169.882C169.762 23.8933 169.602 24.0733 169.402 24.26C169.215 24.4333 168.989 24.5933 168.722 24.74C168.469 24.8867 168.182 25.0067 167.862 25.1C167.555 25.1933 167.235 25.24 166.902 25.24C166.182 25.24 165.529 25.12 164.942 24.88C164.355 24.6267 163.849 24.28 163.422 23.84C163.009 23.3867 162.689 22.8533 162.462 22.24C162.235 21.6267 162.122 20.9533 162.122 20.22C162.122 19.54 162.222 18.8933 162.422 18.28C162.635 17.6533 162.929 17.1 163.302 16.62C163.689 16.14 164.155 15.76 164.702 15.48C165.249 15.1867 165.869 15.04 166.562 15.04C167.189 15.04 167.769 15.14 168.302 15.34C168.849 15.5267 169.295 15.8533 169.642 16.32H169.682V9.88H172.682V25ZM169.922 20.14C169.922 19.4067 169.709 18.8133 169.282 18.36C168.869 17.9067 168.282 17.68 167.522 17.68C166.762 17.68 166.169 17.9067 165.742 18.36C165.329 18.8133 165.122 19.4067 165.122 20.14C165.122 20.8733 165.329 21.4667 165.742 21.92C166.169 22.3733 166.762 22.6 167.522 22.6C168.282 22.6 168.869 22.3733 169.282 21.92C169.709 21.4667 169.922 20.8733 169.922 20.14ZM184.28 23.32C183.8 23.9333 183.193 24.4067 182.46 24.74C181.726 25.0733 180.966 25.24 180.18 25.24C179.433 25.24 178.726 25.12 178.06 24.88C177.406 24.64 176.833 24.3 176.34 23.86C175.86 23.4067 175.48 22.8667 175.2 22.24C174.92 21.6133 174.78 20.9133 174.78 20.14C174.78 19.3667 174.92 18.6667 175.2 18.04C175.48 17.4133 175.86 16.88 176.34 16.44C176.833 15.9867 177.406 15.64 178.06 15.4C178.726 15.16 179.433 15.04 180.18 15.04C180.873 15.04 181.5 15.16 182.06 15.4C182.633 15.64 183.113 15.9867 183.5 16.44C183.9 16.88 184.206 17.4133 184.42 18.04C184.633 18.6667 184.74 19.3667 184.74 20.14V21.08H177.78C177.9 21.6533 178.16 22.1133 178.56 22.46C178.96 22.7933 179.453 22.96 180.04 22.96C180.533 22.96 180.946 22.8533 181.28 22.64C181.626 22.4133 181.926 22.1267 182.18 21.78L184.28 23.32ZM181.74 19.04C181.753 18.5333 181.586 18.1 181.24 17.74C180.893 17.38 180.446 17.2 179.9 17.2C179.566 17.2 179.273 17.2533 179.02 17.36C178.766 17.4667 178.546 17.6067 178.36 17.78C178.186 17.94 178.046 18.1333 177.94 18.36C177.846 18.5733 177.793 18.8 177.78 19.04H181.74Z" fill="#333333"/>
</svg>
